<?xml version="1.0" encoding="utf-8"?>
<!-- Generator: Adobe Illustrator 22.1.0, SVG Export Plug-In . SVG Version: 6.00 Build 0)  -->
<svg version="1.1" id="Слой_1" xmlns="http://www.w3.org/2000/svg" xmlns:xlink="http://www.w3.org/1999/xlink" x="0px" y="0px"
	 viewBox="0 0 193.3 161" style="enable-background:new 0 0 193.3 161;" xml:space="preserve">
<style type="text/css">
	.st0{fill:#A99362;}
</style>
<g>
	<g>
		<path class="st0" d="M15.2,111.9c0-30.3,0-60.5,0-90.8c0-4.3,0-8.7,0-13c-2.2,2.2-4.3,4.3-6.5,6.5c30.9,0,61.9,0,92.8,0
			c4.4,0,8.8,0,13.1,0c8.4,0,8.4-13,0-13c-30.9,0-61.9,0-92.8,0c-4.4,0-8.8,0-13.1,0c-3.5,0-6.5,3-6.5,6.5c0,30.3,0,60.5,0,90.8
			c0,4.3,0,8.7,0,13C2.2,120.3,15.2,120.3,15.2,111.9L15.2,111.9z"/>
	</g>
</g>
<g>
	<g>
		<path class="st0" d="M10.5,55.1c33.9,0,67.7-0.2,101.6,0c11.9,0.1,21.1,8.4,23.4,20c2.9,14.4-6.7,30.5-22.2,30.8
			c-15.8,0.3-31.6,0-47.4,0c-18.5,0-36.9,0-55.4,0c-8.4,0-8.4,13,0,13c34.2,0,68.6,0.7,102.8,0c18.2-0.4,32.6-14.6,35.2-32.3
			c2.5-17.4-6.4-35.7-23.3-42.2c-7.1-2.7-14.6-2.2-22-2.2c-10.6,0-21.3,0-31.9,0c-20.3,0-40.5,0-60.8,0C2.2,42.1,2.1,55.1,10.5,55.1
			L10.5,55.1z"/>
	</g>
</g>
<g>
	<g>
		<path class="st0" d="M66,154.1c0-36.1,0-72.3,0-108.4c0-5.1,0-10.3,0-15.4c0-8.4-13-8.4-13,0c0,36.1,0,72.3,0,108.4
			c0,5.1,0,10.3,0,15.4C53,162.4,66,162.5,66,154.1L66,154.1z"/>
	</g>
</g>
<g>
	<g>
		<path class="st0" d="M61.9,85.9c31.6,0,63.2-0.2,94.8,0c27.3,0.2,29.1,49.6,2.1,51.8c-4.6,0.4-9.4,0-14,0c-10,0-20.1,0-30.1,0
			c-17.6,0-35.2,0-52.8,0c-8.4,0-8.4,13,0,13c16.3,0,32.6,0,48.8,0c10.9,0,21.8,0,32.6,0c5.5,0,11.2,0.4,16.7-0.1
			c36-3.3,41.7-58.8,11.4-74.2c-7.1-3.6-14.4-3.4-22.1-3.4c-9.9,0-19.8,0-29.7,0c-19.2,0-38.5,0-57.7,0
			C53.5,72.9,53.5,85.9,61.9,85.9L61.9,85.9z"/>
	</g>
</g>
</svg>
